<svg width="50" height="50" viewBox="0 0 50 50" fill="none" xmlns="http://www.w3.org/2000/svg">
<circle cx="25" cy="25" r="23.5" transform="rotate(90 25 25)" stroke="white" stroke-width="3"/>
<g clip-path="url(#clip0_109_720)">
<path fill-rule="evenodd" clip-rule="evenodd" d="M27.2929 18.293C27.6834 17.9025 28.3166 17.9025 28.7071 18.293L34.7071 24.293C35.0976 24.6836 35.0976 25.3167 34.7071 25.7073L28.7071 31.7073C28.3166 32.0978 27.6834 32.0978 27.2929 31.7073C26.9024 31.3167 26.9024 30.6836 27.2929 30.293L31.5858 26.0002H16C15.4477 26.0002 15 25.5524 15 25.0002C15 24.4479 15.4477 24.0002 16 24.0002L31.5858 24.0002L27.2929 19.7073C26.9024 19.3167 26.9024 18.6836 27.2929 18.293Z" fill="white" stroke="white" stroke-width="1.5" stroke-linecap="round" stroke-linejoin="round"/>
</g>
<defs>
<clipPath id="clip0_109_720">
<rect width="24" height="24" fill="white" transform="translate(25 8.02954) rotate(45)"/>
</clipPath>
</defs>
</svg>
